<svg xmlns="http://www.w3.org/2000/svg" width="484pt" height="484pt" version="1.0" viewBox="0 0 484 484"><path d="M361.8 148.7c-2.2 2.2-2.5 3.2-1.6 4.1.9.9.7 1.7-1 3.5-3 3.2-2.8 4.8 1.1 8.5 4.8 4.7 8.5 5.1 12.1 1.3 2.3-2.4 2.7-3.3 1.8-4.4-.9-1.1-.7-1.8.8-3.2 1.1-1 2-2.8 2-4 0-3-5-7.5-9.1-8.1-2.8-.5-3.9-.1-6.1 2.3zm9 3.3c2.6 0 1.1 3.7-2.3 5.6-4 2.1-4.3 2.9-1.5 3.7 1.1.3 2 1 2 1.5 0 .7-1.2.6-3.5-.1-1.9-.6-3.5-1.6-3.5-2.4 0-.7 1.6-2.1 3.5-3 4-1.9 4.4-2.9 1.5-3.8-2.8-.9-2.5-2.9.3-2.1 1.2.3 2.8.6 3.5.6zM337.1 176.4c-2.3 2.4-2.8 3.5-2 4.3.9.9.5 2-1.5 4.4l-2.7 3.2 2.8 3c1.5 1.6 4.3 3.6 6.2 4.4 3.3 1.4 3.5 1.4 6.7-1.8 2.6-2.5 3.1-3.6 2.2-4.6-.8-1-.6-1.9 1.1-3.6 1.1-1.3 2.1-3 2.1-3.8 0-2.1-4.9-6.4-8.6-7.7-2.9-.9-3.5-.7-6.3 2.2zm8.7 3.6c2.9 0 1.1 3.9-2.8 5.8s-4.3 3.2-.8 3.2c1 0 1.8.5 1.8 1.1 0 1.1-5.7.6-6.8-.6-1-.9.9-3.6 3.2-4.5 3.4-1.3 4.2-3 1.7-3.7-1.2-.3-2.1-1-2.1-1.5 0-.6 1-.8 2.3-.4 1.2.3 2.8.6 3.5.6zM190.9 189.8c-.9.4-9.3 8.7-18.9 18.4-16.7 17.2-17.4 17.8-21.2 17.8-3.8 0-4.7.7-15.9 11.7L123 249.4V263H89.8l-4 4c-2.2 2.1-4.7 4.2-5.7 4.5-.9.3-3.3 2.1-5.2 4.1l-3.4 3.5-.3 14.2-.4 14.2 3.7 4.2c4.4 5.2 8 6.3 20.5 6.3 11.6 0 15.7-1.1 19.5-5l2.9-3 3.8 3.7c3.8 3.7 4.1 3.8 11.3 3.8 6.7 0 7.6.2 10.3 2.8 2 1.9 4.4 3 7.3 3.4 2.9.4 5.5 1.5 7.4 3.3 1.7 1.5 3.9 3.2 5 3.8 1.3.6 19.2.8 51.5.5l49.5-.4 7.4-7.2c4.1-4 9.4-9.1 11.8-11.5l4.3-4.2.3-13.3c.1-7.2.1-16.8-.1-21.1-.2-7.4-.5-8.3-3.7-12.2l-3.5-4.2v-23.5c0-12.9-.3-24.9-.6-26.6-.5-2.4-2.8-5.1-8.5-10.2-7.5-6.5-8.2-6.9-12.7-6.8-2.6 0-5.5.4-6.4.7-1 .4-6.5 5.1-12.2 10.5-5.8 5.3-10.8 9.7-11.2 9.7-.4 0-1.6.8-2.6 1.7-2.2 2-2.9 1.3-5.2-4.9-1.1-2.9-3.2-5.9-5.7-8-2.1-1.8-5.9-5-8.3-7.1-3.8-3.2-5-3.7-9.2-3.6-2.7 0-5.6.3-6.5.7zm15.3 8.2c1.2 1.6 2.7 3 3.3 3 2.2 0 5.4 4.6 6.6 9.5.6 2.7 1.3 5.5 1.5 6.1.5 2 7.4 2.7 9.3 1 1-.9 2.5-1.6 3.4-1.6.9 0 1.7-.4 1.7-1 0-.5 2.6-3.3 5.7-6.2 3.1-2.9 7.1-6.7 8.8-8.5 4.9-5 11.9-6.8 16.6-4.2 2.8 1.5 9.3 7.9 10.7 10.6.8 1.5 1.2 10.1 1.2 26.9v24.8l3.2 3.3c4.1 4.2 4.7 8.8 3.9 30.2l-.6 16.4-3 2.1c-3.4 2.4-5.4 4.4-11.2 10.9l-4.2 4.7-38.3.2c-21.1.2-43.7.2-50.3.2l-12-.2-3-3.4c-2.5-2.9-3.9-3.6-8-4.1-4-.4-5.5-1.1-7.6-3.6-2.5-3-2.7-3.1-11.2-3.1H124l-1.7-3.5c-1.4-3-2.2-3.5-5-3.5-2.6 0-3.6.6-4.7 2.9-.9 1.6-2.3 3.1-3.1 3.5-.9.3-7.7.6-15 .6-18.4 0-17.7.8-17.3-18.5l.3-15 5.3-2.4c3.1-1.5 5.2-3.1 5.2-4.1 0-3.6 2-4 20.6-4 20.9 0 19.4.8 19.4-10.3 0-8.1.4-9.2 4.3-10.6 1.5-.6 3-1.9 3.4-2.8.4-1 3-4.1 5.8-6.9 4.5-4.5 5.9-5.3 10.4-5.9 4.3-.6 5.4-1.2 6.6-3.6.9-1.6 2.6-3.1 3.9-3.5 1.5-.3 2.7-1.6 3-3.1.4-1.5 1.9-3 4.1-3.9 2.3-.9 3.5-2.1 3.5-3.4 0-1.1.4-2 .9-2 1.1 0 5-3.8 11.6-11.3l5-5.6 6.7-.1c6.3 0 6.9.2 9 3z"/><path d="M194.6 203.6c-.3.9-.6 2.4-.6 3.5 0 1.5-.7 1.9-3.4 1.9-3.3 0-3.5.2-3.8 3.7-.3 3.5-.6 3.8-3.5 4.1-2.8.3-3.2.7-3.5 3.5-.3 2.8-.7 3.3-3.8 3.7-3.1.4-3.5.9-3.8 3.7-.3 2.8-.7 3.2-3.5 3.5-2.9.3-3.2.6-3.5 4l-.3 3.8H150v3.5c0 3.3-.2 3.5-3.5 3.5s-3.5.2-3.5 3.5c0 3.2-.2 3.5-2.9 3.5-1.7 0-3.3.5-3.6 1-.4.6-.7 7.2-.8 14.8l-.2 13.7H132c-3.2 0-3.5-.3-3.8-3.3l-.3-3.2H91v3.5c0 3.3-.2 3.5-3.5 3.5H84v22h22v-7h22v7h21.9l.3 3.7.3 3.8 5.5.2c3 .1 6.3.2 7.3.2 1.3.1 1.7 1 1.7 3.6v3.5h96v-3.4c0-3.2.3-3.5 3.3-3.8 2.8-.3 3.3-.7 3.7-3.8.5-3.2.8-3.5 4.3-3.8l3.7-.3-.2-18.2-.3-18.2-3.7-.3-3.8-.3V209h-3.5c-3.3 0-3.5-.2-3.5-3.6 0-3.5-.1-3.5-3.7-3.2-3.5.3-3.8.6-4.1 3.5-.3 3-.6 3.3-3.7 3.3-3.2 0-3.4.2-3.7 3.7-.3 3.5-.6 3.8-3.5 4.1-3 .3-3.3.6-3.3 3.7 0 3.2-.2 3.4-3.7 3.7-3.5.3-3.8.6-4.1 3.5l-.3 3.3H217v-3.4c0-3.3-.2-3.5-3.7-3.8l-3.8-.3-.3-7.3-.3-7.2h-3.4c-3.3 0-3.5-.2-3.5-3.5s-.2-3.5-3.4-3.5c-2.2 0-3.6.6-4 1.6zm7.4 20.3v7l-3.2.3c-2.9.3-3.4.7-3.8 3.8l-.5 3.5-7.3.3-7.3.3.3-3.8c.3-3.5.6-3.8 3.6-4.1 2.9-.3 3.2-.6 3.2-3.7 0-3.2.2-3.4 3.8-3.7 3.4-.3 3.7-.6 4-3.6.3-2.9.6-3.2 3.8-3.2h3.4v6.9zm58.8 3.8-.3 10.8-3.2.3c-3 .3-3.2.1-3.5-3.5-.3-3.6-.5-3.8-4-4.1-3.6-.3-3.8-.5-3.8-3.7s.2-3.4 3.8-3.7c3.4-.3 3.7-.6 4-3.6.3-2.9.6-3.2 3.8-3.2h3.5l-.3 10.7zm-49.3 2.4c-.3.3 1.1 2 2.9 3.8 3.1 3 3.7 3.2 9.9 3 6.5-.2 6.7-.3 11.4-5.2 4-4.2 4.9-4.7 5.1-3.1.2 1 3.4 4.9 7 8.6 5.4 5.5 7.2 6.8 9.7 6.8 1.7 0 3.6-.5 4.3-1.2.9-.9 1.2 1.7 1.2 11.8v13l3.3 3.2c1.8 1.8 3.7 2.9 4 2.5.4-.4.7 5.5.6 13 0 9.6-.4 13.7-1.2 13.7-1.6 0-13.7 12.3-13.7 13.8 0 .9-10.5 1.2-43 1.2-32.7 0-43-.3-43-1.2 0-.7-1.2-2.5-2.7-4-2.1-2.2-3.6-2.8-6.8-2.8-3.4 0-4.7-.6-7.5-3.5-3.3-3.4-3.6-3.5-11.2-3.5-7.7 0-7.9-.1-10.9-3.5l-3.1-3.5h-21.6l-3.1 3.5c-2.8 3.2-3.5 3.5-8.6 3.5H89v-5.4c0-5 .3-5.7 4.1-9.5l4.1-4.1h24.9l3 3.5c4 4.5 8.9 4.8 13.1.8 2.8-2.6 2.8-2.9 2.8-14.3v-11.6l7.7-7.7c7.1-7.1 8-7.7 11.8-7.7 3.6 0 4.6-.6 9-5.1 4.7-4.9 5-5 5.3-2.8.2 1.3 1.5 3.6 3 5.1 2.3 2.5 3.3 2.8 9 2.8h6.4l6.9-6.1c4.7-4.2 6.9-6.9 6.9-8.5 0-2 .2-2.1 2.4-1.1 1.3.7 2.3 1.4 2.1 1.8z"/><path d="M184.7 280.8c-3.8 3.9-3.6 7.9.6 12 3.3 3.2 3.4 3.2 13.3 3.2 10 0 10 0 13.2-3.3 4.2-4.3 4.1-7.4-.1-11.5-3.3-3.2-3.3-3.2-13.8-3.2-10.2 0-10.6.1-13.2 2.8zm24.3 5.7v3.5h-22v-2.8c0-1.6.3-3.2.7-3.5.3-.4 5.3-.7 11-.7H209v3.5zM236.7 280.8c-3.7 3.9-3.7 8.9.1 12.5 2.7 2.6 3.3 2.7 12.8 2.7 10 0 10 0 13.2-3.3 4-4.2 4.2-8 .5-11.9-2.6-2.7-3-2.8-13.3-2.8s-10.7.1-13.3 2.8zm24.3 5.7v3.5h-22v-7h22v3.5zM307.7 196.8c-3.2 3.4-3.3 4.3-.7 6.7 2.1 1.9 2 1.9-2.5 6.5l-4.6 4.7 3.9 3.5c2.2 2 5.4 3.9 7.2 4.3 2.8.6 3.7.3 6.3-2.4 2.9-2.9 3-3.1 1.4-4.9-.9-1-1.7-2.2-1.7-2.6 0-.3 1.9-2.7 4.2-5.2l4.1-4.5-2.9-3c-1.6-1.7-3.9-3.5-5.2-4-5.5-2.1-6.7-2-9.5.9zm12.3 5.6c0 .1-2.2 2.7-5 5.6-2.7 2.9-5 5.7-5 6.2 0 .4 1.1 1 2.5 1.4 2.3.6 3.6 2.4 1.6 2.4-.9 0-7.4-2.1-8-2.6-.3-.3 2.6-3.6 8.2-9.4l2.8-2.8-3.6-1.2c-1.9-.6-3.3-1.5-3-2 .4-.7 9.5 1.6 9.5 2.4z"/>
    <style>
        path { fill: #000; }
        @media (prefers-color-scheme: dark) {
            path { fill: #FFF; }
        }
    </style>
</svg>