<svg xmlns="http://www.w3.org/2000/svg" width="50" height="50" fill="#FFF"><path d="M28.156 7.02a6.887 6.887 0 0 0-1.158.033c-1.565.173-3.194.86-4.693 1.974a1 1 0 0 0-.014.01c-2.885 2.219-5.57 5.853-7.789 9.244.04-.773.155-1.426.127-2.215-.074-2.113-.44-4.236-1.764-5.775-2.598-3.016-8.352-2.767-10.758 1.883a1 1 0 0 0-.011.023c-.279.573-.647 1.253-.838 2.09C.086 17.401-.464 23.906.303 30.26c.385 3.193 1.117 6.311 2.379 8.863 1.261 2.552 3.113 4.59 5.7 5.291a1 1 0 0 0 .07.016c2.317.46 4.298.115 5.9-.84 1.6-.955 2.8-2.45 3.847-4.186 1.498-2.482 2.813-5.483 4.28-8.463.41 4.212 2.048 7.02 4.312 8.391 2.929 1.773 6.635.987 8.998-1.627 1.267-1.254 2.151-3.128 3.38-5.656 1.236-2.54 2.785-5.75 5.157-9.615 1.94-3.162 3.424-5.127 4.41-6.723.979-1.583 1.491-3.002 1.131-4.563-.256-1.41-1.358-2.387-2.58-2.773-1.418-.5-2.939-.202-4.379.453-1.447.658-2.873 1.691-4.234 2.875-1.69 1.47-3.158 3.098-4.444 4.64.096-3.926-.964-6.71-2.923-8.187-.933-.702-2.01-1.07-3.15-1.136zm-.187 1.978a3.823 3.823 0 0 1 2.135.756c1.623 1.223 2.765 4.24 1.857 9.637a1 1 0 0 0 1.799.746c1.288-1.802 3.687-4.718 6.226-6.926 1.27-1.104 2.577-2.03 3.75-2.563 1.174-.533 2.15-.656 2.897-.388a1 1 0 0 0 .043.013c.608.189 1.145.72 1.234 1.24a1 1 0 0 0 .012.063c.234.976.01 1.634-.887 3.084-.896 1.45-2.43 3.493-4.414 6.727-2.427 3.956-4.015 7.253-5.248 9.787-1.233 2.534-2.149 4.29-3 5.127a1 1 0 0 0-.045.047c-1.817 2.028-4.414 2.537-6.502 1.273-2.087-1.264-3.882-4.506-3.396-10.646a1 1 0 0 0-1.85-.602c-2.591 4.234-4.177 8.827-6.092 12-.957 1.587-1.979 2.794-3.162 3.5-1.173.7-2.531.968-4.443.598-1.866-.516-3.306-2.004-4.408-4.235-1.108-2.24-1.819-5.172-2.186-8.216-.735-6.09-.042-12.758.85-15.088a1 1 0 0 0 .045-.157c.1-.491.388-1.037.705-1.687 1.83-3.525 5.878-3.33 7.46-1.492.821.953 1.215 2.635 1.282 4.54.067 1.906-.164 3.982-.33 5.669a1 1 0 0 0 1.861.595c2.169-3.767 6.03-9.219 9.336-11.767l.004-.002c1.267-.942 2.51-1.467 3.64-1.604.283-.034.56-.043.827-.029z"/>
    <style>
        path { fill: #000; }
        @media (prefers-color-scheme: dark) {
            path { fill: #FFF; }
        }
    </style>
</svg>